<svg xmlns="http://www.w3.org/2000/svg" data-name="Layer 1" viewBox="0 0 100 125" x="0px" y="0px"><title>Artboard 406</title><path d="M50.84,10.92h0c1.56-.14,2.79-1,2.8-1.92s-1.32-1.65-3.06-1.62l-.47,0a41.84,41.84,0,0,0-19.54,6.24A43.14,43.14,0,0,0,16.23,28.58a42.76,42.76,0,0,0-.77,40.67,43.15,43.15,0,0,0,34,23.13,53.64,53.64,0,0,0,10.67-.06,32,32,0,0,0,10.55-3.21A33.62,33.62,0,0,0,88.59,52,33.76,33.76,0,0,0,77.37,33.42a33.15,33.15,0,0,0-20.19-7.77c-3.34-.13-7.32-.1-11,1.26A23.12,23.12,0,0,0,31.37,54.32,22.65,22.65,0,0,0,45.92,70.2a25.61,25.61,0,0,0,10.82,1.14,12.34,12.34,0,0,0,9.63-6.54,12.14,12.14,0,0,0-.17-11.43,11.91,11.91,0,0,0-9.45-6c-2-.07-3,.77-3.1,1.67s1.46,1.65,2.78,1.77a2.38,2.38,0,0,1,.37.06,8.13,8.13,0,0,1,6.09,4.73A7.9,7.9,0,0,1,62.33,63,7.68,7.68,0,0,1,56,66.58a20.33,20.33,0,0,1-8.65-1.38A17.37,17.37,0,0,1,37,52.59,16.95,16.95,0,0,1,48.69,33.08a17.29,17.29,0,0,1,4-.65c.63,0,1.43,0,2.28,0s1.5.08,2.26.12A26.45,26.45,0,0,1,67,82.7a25.34,25.34,0,0,1-8.26,2.45,51.45,51.45,0,0,1-9,0A36.77,36.77,0,0,1,21,65.85a37.46,37.46,0,0,1,.06-35.1A38.06,38.06,0,0,1,50.84,10.92Z"/><text x="0" y="115" fill="#000000" font-size="5px" font-weight="bold" font-family="'Helvetica Neue', Helvetica, Arial-Unicode, Arial, Sans-serif">Created by Gregor Cresnar</text><text x="0" y="120" fill="#000000" font-size="5px" font-weight="bold" font-family="'Helvetica Neue', Helvetica, Arial-Unicode, Arial, Sans-serif">from the Noun Project</text></svg>